2.2Hzlow3min_grf.mot
version=1
nRows=25
nColumns 19
inDegrees=yes
endheader
time	1_ground_force_vx	1_ground_force_vy	1_ground_force_vz	1_ground_force_px	1_ground_force_py	1_ground_force_pz	1_ground_torque_x	1_ground_torque_y	1_ground_torque_z	2_ground_force_vx	2_ground_force_vy	2_ground_force_vz	2_ground_force_px	2_ground_force_py	2_ground_force_pz	2_ground_torque_x	2_ground_torque_y	2_ground_torque_z
            0.005000	           11.465203	          402.278011	          -22.332804	           -0.150269	            0.006145	           -0.383658	            0.031647	            1.110408	           -0.061645	            9.893807	          588.025644	           54.653021	           -0.173902	            0.005786	           -0.678216	           -0.015563	           -0.924981	           -0.085971
            0.005500	           11.742417	          397.949328	          -21.801767	           -0.150246	            0.006145	           -0.383676	            0.030782	            1.043205	           -0.057152	           10.475656	          582.505552	           53.976077	           -0.173688	            0.005786	           -0.678030	           -0.014829	           -0.824576	           -0.076407
            0.006000	           12.112344	          392.357397	          -20.955377	           -0.149701	            0.006147	           -0.384071	            0.031381	            1.016539	           -0.054292	           10.912324	          578.273831	           53.350720	           -0.173727	            0.005787	           -0.678382	           -0.014214	           -0.753229	           -0.069492
            0.006500	           12.069274	          388.388005	          -20.146862	           -0.149828	            0.006146	           -0.383895	            0.030698	            0.987873	           -0.051244	           10.931934	          572.752044	           52.580158	           -0.173858	            0.005787	           -0.678294	           -0.013920	           -0.729318	           -0.066953
            0.007000	           12.713672	          383.518037	          -19.481486	           -0.149477	            0.006147	           -0.384122	            0.034176	            1.030959	           -0.052369	           11.042441	          567.968330	           51.483689	           -0.173688	            0.005787	           -0.678145	           -0.015562	           -0.800439	           -0.072556
            0.007500	           13.220119	          378.468533	          -18.999965	           -0.149132	            0.006149	           -0.384529	            0.040024	            1.145817	           -0.057523	           11.391932	          561.895868	           50.570232	           -0.173577	            0.005786	           -0.677806	           -0.018303	           -0.902781	           -0.081250
            0.008000	           13.497039	          374.500775	          -18.559094	           -0.149426	            0.006147	           -0.384045	            0.038282	            1.062207	           -0.052640	           11.968903	          557.666663	           49.381678	           -0.173472	            0.005787	           -0.677971	           -0.019332	           -0.900735	           -0.079761
            0.008500	           13.682402	          371.073373	          -18.023965	           -0.149552	            0.006146	           -0.383756	            0.037253	            1.010326	           -0.049074	           12.408812	          552.514847	           48.565324	           -0.173601	            0.005786	           -0.677837	           -0.016142	           -0.718758	           -0.063178
            0.009000	           14.280325	          365.303414	          -17.683331	           -0.149189	            0.006148	           -0.384195	            0.039689	            1.015283	           -0.049147	           12.805358	          546.440881	           48.121128	           -0.173301	            0.005786	           -0.677478	           -0.015713	           -0.670519	           -0.059048
            0.009500	           14.145000	          361.334986	          -17.103868	           -0.149132	            0.006149	           -0.384512	            0.035721	            0.912498	           -0.043193	           13.151006	          541.471969	           47.540111	           -0.173289	            0.005786	           -0.677430	           -0.015127	           -0.622827	           -0.054683
            0.010000	           14.284652	          357.186574	          -16.571716	           -0.149039	            0.006149	           -0.384582	            0.035333	            0.883499	           -0.040990	           13.449159	          536.687045	           47.006699	           -0.173189	            0.005787	           -0.677820	           -0.015075	           -0.601563	           -0.052689
            0.010500	           14.654496	          352.676040	          -15.674833	           -0.148871	            0.006149	           -0.384568	            0.039847	            0.958958	           -0.042621	           13.561783	          531.349844	           46.189826	           -0.173041	            0.005787	           -0.677427	           -0.017883	           -0.700647	           -0.060907
            0.011000	           15.115081	          348.347393	          -15.144251	           -0.148680	            0.006149	           -0.384373	            0.043126	            0.993901	           -0.043209	           13.579899	          526.197799	           45.045154	           -0.173146	            0.005786	           -0.677466	           -0.017708	           -0.686164	           -0.058739
            0.011500	           15.254245	          344.380002	          -14.794750	           -0.148902	            0.006149	           -0.384459	            0.040264	            0.908990	           -0.039051	           14.017191	          521.782211	           44.325284	           -0.173086	            0.005787	           -0.677618	           -0.017378	           -0.646894	           -0.054953
            0.012000	           15.852345	          339.510812	          -14.312684	           -0.148504	            0.006150	           -0.384694	            0.042729	            0.915126	           -0.038579	           14.268932	          516.814757	           43.275026	           -0.173074	            0.005786	           -0.677349	           -0.016226	           -0.587703	           -0.049211
            0.012500	           15.992325	          334.821178	          -13.691139	           -0.148035	            0.006151	           -0.384968	            0.042618	            0.892276	           -0.036486	           14.708322	          511.845971	           42.787825	           -0.172848	            0.005788	           -0.677587	           -0.013769	           -0.479168	           -0.040056
            0.013000	           16.085271	          331.034603	          -13.478320	           -0.148424	            0.006152	           -0.385127	            0.039002	            0.802667	           -0.032681	           15.241950	          506.694326	           42.018358	           -0.172920	            0.005787	           -0.677406	           -0.013237	           -0.440055	           -0.036492
            0.013500	           16.133169	          327.246704	          -12.944394	           -0.148296	            0.006150	           -0.384775	            0.040431	            0.820109	           -0.032440	           15.260374	          501.539710	           41.577608	           -0.172447	            0.005788	           -0.677229	           -0.015972	           -0.524926	           -0.043516
            0.014000	           16.135472	          322.737476	          -12.367592	           -0.148221	            0.006151	           -0.384995	            0.039966	            0.799387	           -0.030633	           15.372539	          496.385037	           41.230673	           -0.172519	            0.005788	           -0.677265	           -0.014460	           -0.466911	           -0.038782
            0.014500	           16.412150	          318.229542	          -12.066607	           -0.147515	            0.006151	           -0.384963	            0.039670	            0.769196	           -0.029166	           15.245640	          492.519902	           40.513013	           -0.172769	            0.005788	           -0.677490	           -0.016133	           -0.521194	           -0.042872
            0.015000	           17.193491	          314.081389	          -11.581904	           -0.147759	            0.006153	           -0.385321	            0.049005	            0.895206	           -0.033011	           15.269820	          485.709799	           39.550140	           -0.172337	            0.005787	           -0.676763	           -0.013855	           -0.440696	           -0.035885
            0.015500	           17.149833	          310.833845	          -10.953721	           -0.147858	            0.006151	           -0.384798	            0.042994	            0.779247	           -0.027461	           15.563177	          482.214971	           38.692830	           -0.172573	            0.005787	           -0.677142	           -0.013080	           -0.405283	           -0.032520
            0.016000	           17.747266	          306.506405	          -10.698616	           -0.147545	            0.006151	           -0.384920	            0.047649	            0.822931	           -0.028724	           16.094749	          477.616311	           37.784551	           -0.172247	            0.005789	           -0.677202	           -0.011365	           -0.337265	           -0.026681
            0.016500	           17.749209	          302.718693	          -10.210433	           -0.147663	            0.006152	           -0.385116	            0.044569	            0.760136	           -0.025639	           16.345430	          473.014963	           37.345672	           -0.172495	            0.005788	           -0.677271	           -0.012753	           -0.369054	           -0.029138
            0.017000	           17.842578	          299.111628	           -9.813417	           -0.147684	            0.006150	           -0.384733	            0.046665	            0.782295	           -0.025666	           16.458239	          467.676377	           36.951153	           -0.172257	            0.005788	           -0.677051	           -0.012807	           -0.363911	           -0.028753
